                        <svg
                            viewBox="0 0 32 32"
                            xmlns="http://www.w3.org/2000/svg"
                            aria-hidden="true"
                            role="presentation"
                            focusable="false"
                            style={{
                                display: "block",
                                height: "24px",
                                width: "24px",
                                marginRight: "15px",
                                fill: "currentcolor",
                            }}
                        >
                            <g
                                vectorEffect="non-scaling-stroke"
                                transform="translate(0,0)scale(1,1)"
                                fill="none"
                                stroke="#000"
                                strokeWidth="2"
                            >
                                <path d="m18.7652487 2.2057265c1-1 3.658 1.999 1.244 4.413l-1.9372487 1.9662735c-.78.781-.78 2.047 0 2.828.391.391.903.586 1.415.586l8.513.001c1.104 0 2 .896 2 2s-.896 2-2 2h-1c1.104 0 2 .896 2 2s-.896 2-2 2h-1c1.104 0 2 .896 2 2s-.896 2-2 2h-1c1.104 0 2 .896 2 2s-.896 2-2 2l-11.999-.00075c-1.4799105-.0005951-2.772087-.8045363-3.46408174-1.9994017l-5.53691826.0001517c-.55228475 0-1-.4477153-1-1v-10c0-.5522847.44771525-1 1-1l3.001-.0009098c5.8382366-5.85406905 9.5222235-9.54739462 11.0519608-11.08006692z"></path>
                            </g>
                        </svg>